<svg xmlns="http://www.w3.org/2000/svg" viewBox="0 0 1920 150" preserveAspectRatio="none">
    <g fill="#FFFFFF" fill-rule="nonzero">
        <path d="M1920 57.59c-171.821 47.008-300.354 63.396-385.598 49.162-127.867-21.35-255.734-64.051-383.6-49.773-127.868 13.744-255.734 85.802-383.601 92.474-127.867 6.672-255.734-49.373-383.6-78.33C255.733 42.702 127.866 42.702 63.932 42.702L0 37V0h1920v57.59z" opacity=".149" />
        <path d="M0 57.59c171.821 47.008 300.354 63.396 385.598 49.162 127.867-21.35 255.734-64.051 383.6-49.773 127.868 13.744 255.734 85.802 383.601 92.474 127.867 6.672 255.734-49.373 383.6-78.33 127.867-28.422 255.734-28.422 319.668-28.422H1920V0H0v57.59z" opacity=".296" />
        <path d="M0 38c171.821 31.032 300.354 41.85 385.598 32.457 127.867-14.092 255.734-42.274 383.6-32.85 127.868 9.07 255.734 56.629 383.601 61.032 127.867 4.404 255.734-32.586 383.6-51.697 127.867-18.76 255.734-18.76 319.668-18.76H1920V0H0v38z" />
    </g>
</svg>